HIERARCHY
ROOT Hips
{
 OFFSET 0.000000 0.000000 0.000000
 CHANNELS 6 Xposition Yposition Zposition Yrotation Xrotation Zrotation
 JOINT Chest
 {
  OFFSET 0.000000 10.354800 0.006500
  CHANNELS 3 Yrotation Xrotation Zrotation
  JOINT Chest2
  {
   OFFSET 0.000000 10.435800 -0.013200
   CHANNELS 3 Yrotation Xrotation Zrotation
   JOINT Chest3
   {
    OFFSET 0.000000 10.393700 0.000000
    CHANNELS 3 Yrotation Xrotation Zrotation
    JOINT Chest4
    {
     OFFSET 0.000000 10.383100 0.000000
     CHANNELS 3 Yrotation Xrotation Zrotation
     JOINT Neck
     {
      OFFSET 0.000000 15.694000 0.000000
      CHANNELS 3 Yrotation Xrotation Zrotation
      JOINT Head
      {
       OFFSET 0.000000 9.711000 -0.028000
       CHANNELS 3 Yrotation Xrotation Zrotation
       End Site
       {
        OFFSET 0.000000 18.578700 -0.014800
       }
      }
     }
     JOINT RightCollar
     {
      OFFSET -3.157200 10.367500 0.000000
      CHANNELS 3 Yrotation Xrotation Zrotation
      JOINT RightShoulder
      {
       OFFSET -14.482500 0.000000 0.000000
       CHANNELS 3 Yrotation Xrotation Zrotation
       JOINT RightElbow
       {
        OFFSET 0.000000 -31.707800 0.000000
        CHANNELS 3 Yrotation Xrotation Zrotation
        JOINT RightWrist
        {
         OFFSET 0.000000 -25.659300 0.000000
         CHANNELS 3 Yrotation Xrotation Zrotation
         End Site
         {
          OFFSET 0.000000 -18.994300 0.000000
         }
        }
       }
      }
     }
     JOINT LeftCollar
     {
      OFFSET 3.157200 10.367500 0.000000
      CHANNELS 3 Yrotation Xrotation Zrotation
      JOINT LeftShoulder
      {
       OFFSET 14.482500 0.000000 0.000000
       CHANNELS 3 Yrotation Xrotation Zrotation
       JOINT LeftElbow
       {
        OFFSET 0.000000 -31.707800 0.000000
        CHANNELS 3 Yrotation Xrotation Zrotation
        JOINT LeftWrist
        {
         OFFSET 0.000000 -25.659300 0.000000
         CHANNELS 3 Yrotation Xrotation Zrotation
         End Site
         {
          OFFSET 0.000000 -18.994300 0.000000
         }
        }
       }
      }
     }
    }
   }
  }
 }
 JOINT RightHip
 {
  OFFSET -8.365600 -0.032100 -0.003200
  CHANNELS 3 Yrotation Xrotation Zrotation
  JOINT RightKnee
  {
   OFFSET 0.000000 -43.980000 0.003100
   CHANNELS 3 Yrotation Xrotation Zrotation
   JOINT RightAnkle
   {
    OFFSET 0.000000 -42.882800 0.005200
    CHANNELS 3 Yrotation Xrotation Zrotation
    JOINT RightToe
    {
     OFFSET 0.000000 -4.915500 10.826300
     CHANNELS 3 Yrotation Xrotation Zrotation
     End Site
     {
      OFFSET 0.000000 -1.517500 6.175900
     }
    }
   }
  }
 }
 JOINT LeftHip
 {
  OFFSET 8.365600 -0.032100 -0.003200
  CHANNELS 3 Yrotation Xrotation Zrotation
  JOINT LeftKnee
  {
   OFFSET 0.000000 -43.980000 0.003100
   CHANNELS 3 Yrotation Xrotation Zrotation
   JOINT LeftAnkle
   {
    OFFSET 0.000000 -42.882800 0.005200
    CHANNELS 3 Yrotation Xrotation Zrotation
    JOINT LeftToe
    {
     OFFSET 0.000000 -4.915500 10.826300
     CHANNELS 3 Yrotation Xrotation Zrotation
     End Site
     {
      OFFSET 0.000000 -1.517500 6.175900
     }
    }
   }
  }
 }
}
MOTION
Frames: 16
Frame Time: 0.008333
100.883523 126.644541 130.140021 170.851349 -22.292656 -2.926105 -0.580976 13.705801 4.365332 -0.090985 1.176762 0.405322 -0.152794 2.022033 0.650680 -0.576354 12.325087 3.894846 0.638985 21.510627 -2.326120 1.177424 -2.732782 -2.676723 1.725198 5.726304 -4.627361 4.235786 -1.541277 -3.838474 -80.560149 -55.089587 117.006721 -23.453797 -13.507225 -35.047624 -0.234131 8.190457 0.200259 9.568996 0.993577 -6.055649 79.504779 -57.723276 -119.255086 24.939095 -5.968760 42.717130 8.427109 -56.291749 -10.018192 -132.419184 71.233073 -125.405832 1.520305 -5.193993 -15.549052 0.002061 -0.004338 0.000936 -19.673782 -60.883581 4.188944 62.247087 83.279092 56.640494 -2.469660 -22.626485 -0.698368 -0.000734 -0.002207 -0.000333
100.882545 126.643789 130.137283 170.850494 -22.280291 -2.939812 -0.575237 13.712913 4.360642 -0.093899 1.178455 0.405092 -0.151191 2.024230 0.650334 -0.567842 12.330367 3.889910 0.604386 21.513143 -2.350280 1.191606 -2.766375 -2.651322 1.726275 5.709269 -4.623191 4.243869 -1.530522 -3.825800 -80.536731 -55.088737 116.988619 -23.444900 -13.531329 -35.036393 -0.222095 8.178626 0.201052 9.557702 0.981146 -6.041385 79.486191 -57.704331 -119.221019 24.935093 -5.979692 42.729444 8.407897 -56.298974 -10.003465 -132.425699 71.241145 -125.410649 1.524901 -5.196175 -15.545736 -0.001284 -0.002563 -0.000583 -19.677014 -60.889802 4.204585 62.244728 83.277043 56.647846 -2.472045 -22.624182 -0.696800 0.001572 -0.002673 0.000714
100.880997 126.643053 130.134502 170.854125 -22.268828 -2.951428 -0.575081 13.711319 4.361660 -0.092040 1.188956 0.395512 -0.149849 2.048182 0.628475 -0.560754 12.314741 3.906458 0.595315 21.503160 -2.352131 1.201545 -2.785797 -2.632836 1.739905 5.700120 -4.638189 4.234426 -1.544228 -3.788093 -80.495321 -55.088258 116.958237 -23.448009 -13.521314 -35.052290 -0.225331 8.180882 0.174776 9.557270 0.971934 -6.036186 79.476145 -57.685389 -119.185144 24.906523 -5.972397 42.722992 8.402630 -56.304864 -10.006104 -132.461860 71.242068 -125.432827 1.526245 -5.208048 -15.548935 -0.001147 -0.001587 -0.000521 -19.678382 -60.897330 4.214166 62.232055 83.276557 56.639164 -2.481161 -22.611580 -0.695338 0.000143 -0.002405 0.000065
100.879470 126.642458 130.131512 170.853570 -22.260065 -2.960560 -0.571523 13.712334 4.361281 -0.091435 1.200030 0.384702 -0.148811 2.048655 0.630401 -0.556437 12.319948 3.902133 0.595821 21.486470 -2.341638 1.182188 -2.787433 -2.643836 1.745314 5.676139 -4.619906 4.238196 -1.519796 -3.794364 -80.524785 -55.081255 116.993710 -23.486171 -13.458939 -35.079755 -0.223116 8.162129 0.187488 9.551552 0.978512 -6.057185 79.492025 -57.710252 -119.194355 24.980624 -6.007662 42.759239 8.406130 -56.309812 -10.008640 -132.479796 71.244632 -125.439948 1.523902 -5.210245 -15.549136 -0.000316 -0.003217 -0.000143 -19.637059 -60.904109 4.187991 62.219255 83.281211 56.649170 -2.474506 -22.601377 -0.693241 0.002763 -0.001925 0.001254
100.878473 126.641830 130.128882 170.852555 -22.250808 -2.971794 -0.565479 13.721932 4.355869 -0.089429 1.219023 0.367421 -0.149302 2.025923 0.652568 -0.551883 12.327763 3.893045 0.595399 21.473214 -2.331973 1.167992 -2.784895 -2.659679 1.751676 5.664278 -4.615179 4.243631 -1.497533 -3.789773 -80.517715 -55.069558 116.997725 -23.490295 -13.454528 -35.077198 -0.220968 8.145342 0.199876 9.542026 0.989226 -6.085169 79.500462 -57.709944 -119.184141 24.980462 -6.010259 42.775417 8.404158 -56.315788 -10.003995 -132.491114 71.246135 -125.441473 1.521258 -5.212835 -15.550287 0.001651 -0.005104 0.000749 -19.628113 -60.912801 4.185853 62.313763 83.278281 56.754983 -2.462942 -22.592806 -0.691936 0.005758 -0.002513 0.002614
100.877198 126.640857 130.127176 170.850337 -22.236805 -2.980918 -0.556088 13.742497 4.333868 -0.090034 1.201703 0.383495 -0.149765 2.013319 0.666037 -0.548823 12.338217 3.879582 0.587169 21.477049 -2.345173 1.153824 -2.770049 -2.708563 1.758562 5.677381 -4.639383 4.240089 -1.516982 -3.753902 -80.476845 -55.067648 116.970045 -23.496027 -13.449827 -35.073483 -0.219466 8.147745 0.194374 9.535922 0.980513 -6.092455 79.502425 -57.697730 -119.158903 24.976241 -6.013563 42.788604 8.420426 -56.324740 -10.018920 -132.526694 71.251341 -125.464606 1.528316 -5.217536 -15.550390 0.000345 -0.005560 0.000157 -19.626851 -60.927612 4.192260 62.412232 83.280647 56.861970 -2.481784 -22.578666 -0.686422 0.005796 -0.001998 0.002632
100.876900 126.639312 130.127405 170.846191 -22.213485 -2.995540 -0.548170 13.735620 4.333350 -0.089440 1.201963 0.382798 -0.145548 2.013600 0.665550 -0.547194 12.326215 3.893038 0.577682 21.490457 -2.374238 1.155688 -2.774109 -2.708361 1.758618 5.678594 -4.642817 4.252959 -1.501951 -3.756179 -80.468754 -55.064536 116.972684 -23.499124 -13.444006 -35.068216 -0.222148 8.156588 0.176002 9.536488 0.968989 -6.084251 79.483482 -57.645538 -119.093157 24.943030 -6.009160 42.789915 8.413875 -56.347992 -10.007154 -132.543488 71.249579 -125.475946 1.521467 -5.221808 -15.549168 0.000426 -0.006338 0.000193 -19.657558 -60.946297 4.232626 62.483438 83.286297 56.929417 -2.488678 -22.580812 -0.677618 0.005570 -0.001395 0.002529
100.874695 126.638885 130.124363 170.841687 -22.208413 -2.996115 -0.539383 13.745352 4.319217 -0.088936 1.202098 0.382135 -0.149018 2.023991 0.654164 -0.538890 12.322656 3.896927 0.568236 21.509382 -2.422736 1.166227 -2.791678 -2.685515 1.762825 5.662265 -4.625974 4.269236 -1.484755 -3.757550 -80.455563 -55.069210 116.976131 -23.497228 -13.447890 -35.061317 -0.218643 8.168206 0.154950 9.534584 0.934038 -6.055733 79.486941 -57.629599 -119.071904 24.929388 -6.006980 42.794301 8.434900 -56.346006 -10.029143 -132.565122 71.257575 -125.487762 1.518308 -5.222806 -15.546231 0.000946 -0.007205 0.000430 -19.619461 -60.956652 4.197534 62.558935 83.296963 57.016549 -2.484684 -22.569233 -0.674120 0.002929 -0.001900 0.001330
100.873468 126.638174 130.122475 170.845132 -22.198273 -3.005713 -0.531079 13.749781 4.313828 -0.090999 1.198598 0.385617 -0.153811 2.019069 0.657058 -0.526442 12.347687 3.857144 0.576239 21.499169 -2.404001 1.166933 -2.779171 -2.708238 1.762175 5.643234 -4.594340 4.286176 -1.479608 -3.749936 -80.454459 -55.070005 116.987996 -23.491252 -13.442537 -35.060090 -0.220689 8.149498 0.184530 9.519948 0.938894 -6.079190 79.524022 -57.663239 -119.088771 24.929353 -6.011871 42.808638 8.441679 -56.350016 -10.040725 -132.615062 71.259298 -125.528745 1.520215 -5.235129 -15.545709 0.000922 -0.006557 0.000419 -19.604075 -60.967790 4.184456 62.613573 83.305501 57.079182 -2.489170 -22.570721 -0.663234 0.002150 -0.002959 0.000976
100.872635 126.637263 130.121389 170.856041 -22.184532 -3.020842 -0.527242 13.750587 4.311610 -0.098287 1.187981 0.398081 -0.144954 2.031429 0.643829 -0.529100 12.340000 3.864202 0.576087 21.501917 -2.409087 1.171372 -2.759611 -2.736728 1.762111 5.646121 -4.605899 4.303752 -1.476456 -3.737609 -80.453666 -55.073851 116.992407 -23.490739 -13.430599 -35.055484 -0.222675 8.153172 0.173716 9.512702 0.932372 -6.081215 79.541929 -57.674342 -119.092437 24.932482 -6.041217 42.837433 8.456581 -56.344942 -10.068442 -132.641343 71.273434 -125.530904 1.525388 -5.245551 -15.546747 0.001347 -0.003092 0.000612 -19.609304 -60.981400 4.183408 62.694633 83.307935 57.165176 -2.485968 -22.571216 -0.653365 0.001946 -0.003377 0.000884
100.872183 126.635730 130.122143 170.871868 -22.161077 -3.041463 -0.533604 13.734783 4.319633 -0.093541 1.195388 0.390715 -0.133724 2.046889 0.623890 -0.537099 12.318984 3.890946 0.576756 21.504545 -2.413934 1.179800 -2.739234 -2.764845 1.765898 5.650458 -4.613675 4.314845 -1.481702 -3.733673 -80.393408 -55.081924 116.960508 -23.489632 -13.450084 -35.049311 -0.223203 8.157343 0.163829 9.509179 0.919961 -6.073762 79.558647 -57.668220 -119.088679 24.930878 -6.051711 42.852386 8.445868 -56.360656 -10.073585 -132.658860 71.281222 -125.535817 1.519136 -5.243301 -15.546537 0.002686 -0.004243 0.001220 -19.637829 -61.000128 4.205510 62.677250 83.315177 57.152201 -2.514564 -22.565075 -0.644463 -0.002418 -0.000127 -0.001098
100.871214 126.634864 130.121109 170.878292 -22.148902 -3.053982 -0.531603 13.729776 4.322059 -0.087507 1.202687 0.380878 -0.136587 2.047339 0.626909 -0.526334 12.320792 3.884576 0.577919 21.511520 -2.422035 1.179058 -2.748289 -2.749599 1.768769 5.655848 -4.623839 4.321596 -1.494130 -3.720099 -80.424188 -55.065572 116.977944 -23.492078 -13.437786 -35.043733 -0.232375 8.152487 0.170272 9.506442 0.907104 -6.069417 79.600808 -57.650863 -119.096072 24.931741 -6.055114 42.865906 8.449235 -56.365336 -10.082453 -132.684779 71.286004 -125.557305 1.524745 -5.248441 -15.538937 0.002434 -0.004488 0.001105 -19.642845 -61.011414 4.207245 62.685193 83.326025 57.165018 -2.493626 -22.559942 -0.639629 -0.000896 0.001214 -0.000407
100.869470 126.634270 130.119229 170.881254 -22.141816 -3.059908 -0.523927 13.736252 4.314188 -0.084398 1.218850 0.367282 -0.142560 2.033092 0.641701 -0.518833 12.321859 3.879338 0.582753 21.517477 -2.430625 1.180030 -2.756645 -2.738591 1.773001 5.650878 -4.622393 4.354227 -1.493210 -3.739024 -80.443194 -55.042864 116.985880 -23.491933 -13.454367 -35.041049 -0.236171 8.148020 0.172285 9.493244 0.906768 -6.092049 79.638725 -57.687052 -119.116531 24.935692 -6.057415 42.865753 8.456537 -56.366383 -10.092365 -132.705934 71.292086 -125.577417 1.514762 -5.246917 -15.528461 0.002895 -0.004513 0.001314 -19.633876 -61.019864 4.195394 62.718105 83.329180 57.208685 -2.493147 -22.543052 -0.646635 0.000973 0.003724 0.000442
100.866445 126.633685 130.117040 170.887274 -22.135846 -3.059188 -0.526831 13.745237 4.299006 -0.081929 1.221859 0.366812 -0.145339 2.023678 0.648579 -0.518033 12.329352 3.869460 0.589704 21.546576 -2.465062 1.199776 -2.746064 -2.761242 1.783028 5.646067 -4.623264 4.350957 -1.503460 -3.727335 -80.348411 -55.050504 116.950660 -23.492725 -13.445085 -35.029000 -0.230348 8.145137 0.169936 9.487851 0.894236 -6.083162 79.655029 -57.690746 -119.122543 24.935928 -6.051245 42.863032 8.461274 -56.369094 -10.103064 -132.714358 71.284966 -125.606455 1.512463 -5.250221 -15.499262 -0.003125 -0.002460 -0.001419 -19.619185 -61.027290 4.175995 62.720103 83.330471 57.211001 -2.493532 -22.538280 -0.641181 0.002047 0.003834 0.000930
100.865750 126.632427 130.117443 170.897227 -22.117846 -3.074290 -0.528485 13.745749 4.299238 -0.080578 1.218110 0.369212 -0.148544 2.018553 0.652621 -0.515207 12.362179 3.844348 0.602467 21.516145 -2.443097 1.207243 -2.736917 -2.775109 1.793553 5.613713 -4.608198 4.366944 -1.509477 -3.726059 -80.330677 -55.041828 116.944975 -23.494723 -13.430982 -35.018351 -0.222784 8.109159 0.193708 9.483276 0.889890 -6.082500 79.680316 -57.688061 -119.133263 24.937442 -6.051480 42.846685 8.460765 -56.381649 -10.104996 -132.718545 71.285589 -125.609694 1.515753 -5.251076 -15.488257 -0.003371 -0.002232 -0.001530 -19.614366 -61.047853 4.171227 62.787085 83.330211 57.293825 -2.494775 -22.536181 -0.636586 0.002781 0.002104 0.001263
100.865530 126.631458 130.117439 170.911179 -22.103610 -3.092376 -0.528248 13.750792 4.300592 -0.087142 1.203899 0.380120 -0.142818 2.034390 0.641370 -0.516922 12.352138 3.852001 0.604590 21.518442 -2.447193 1.215360 -2.730608 -2.796908 1.796805 5.608091 -4.608133 4.386180 -1.508777 -3.732359 -80.318410 -55.034978 116.944737 -23.499790 -13.428298 -35.012423 -0.218349 8.103914 0.193725 9.479654 0.889460 -6.084286 79.691973 -57.689547 -119.140450 24.943437 -6.062858 42.825026 8.477707 -56.387502 -10.118376 -132.724537 71.283834 -125.595415 1.508556 -5.248543 -15.481626 0.000569 -0.001901 0.000258 -19.640664 -61.060665 4.191394 62.869660 83.326482 57.374253 -2.496632 -22.536677 -0.627503 0.001165 0.002308 0.000529
